<svg xmlns="http://www.w3.org/2000/svg" viewBox="0 0 1318.18 1333.33" shape-rendering="geometricPrecision" text-rendering="geometricPrecision" image-rendering="optimizeQuality" fill-rule="evenodd" clip-rule="evenodd"><path d="M29.68 207.36L647.2 1.75a34.394 34.394 0 0121.88.08l.03-.08 625.6 214.32c15.38 5.21 24.69 20.2 23.34 35.69.06.81.09 1.63.09 2.45v727.65h-.09c-.01 12.61-6.95 24.76-18.98 30.83l-621.15 315.67c-5.22 3.16-11.35 4.97-17.89 4.97-6.91 0-13.34-2.02-18.74-5.51L18.66 1003.01C6.89 996.86.15 984.87.14 972.45H0V241.62c0-17.44 12.9-31.87 29.68-34.26zM166.4 740.47c0-13.28 10.76-24.04 24.04-24.04s24.04 10.77 24.04 24.04v97.96c0 .8-.04 1.6-.12 2.38.01 3.36.39 6.11 1.21 8.1.28.67.69 1.27 1.27 1.77l60 27.91c12.03 5.55 17.29 19.8 11.74 31.83-5.55 12.03-19.81 17.28-31.84 11.74l-61.36-28.54c-1.09-.47-2.17-1.03-3.21-1.68-9.89-6.15-16.69-14.55-20.93-24.81-3.39-8.24-4.87-17.35-4.79-27.14l-.05-1.56v-97.96zm459.02 501.3V545.84L69.25 293.62v658.01l556.17 290.15zm623.49-939.91L694.66 546.12v696.27l554.25-281.67V301.86zM657.74 70.9L131.7 246.05l528.52 239.69 528.55-232.92L657.74 70.9z" fill-rule="nonzero"/></svg>